<svg width="31" height="30" viewBox="0 0 31 30" fill="none" xmlns="http://www.w3.org/2000/svg">
<path d="M13.3122 10.9057C15.6582 5.31368 23.7196 3.83547 27.9004 8.27406C32.1208 12.2011 31.0223 19.913 25.9088 22.5131C26.3896 19.3673 25.3279 16.1176 23.2006 13.8963C20.7651 11.2476 16.8226 10.0587 13.3122 10.9043V10.9057ZM24.6733 20.9928C24.6759 17.5458 22.7185 14.4631 19.7021 12.9428C21.0298 19.8249 14.3792 26.3296 7.47564 24.8027C8.93644 27.8999 12.0056 29.9554 15.5568 29.9975C20.5135 30.1172 24.7404 25.8798 24.6719 20.9928H24.6733ZM13.7008 19.1345C8.02097 18.1521 4.10753 12.1353 5.57623 6.51702C0.0781543 8.90005 -1.26805 16.9776 3.09589 21.0112C7.02516 25.1736 14.5359 24.182 17.2613 19.1924C16.1047 19.3778 14.8455 19.3541 13.7021 19.1345H13.7008ZM6.63132 8.96583C6.63132 12.3352 8.49518 15.3548 11.4036 16.9132C9.63062 9.90877 16.3524 2.92406 23.472 4.47461C18.9249 -3.44911 6.61156 -0.165185 6.63132 8.96714V8.96583Z" fill="url(#paint0_linear_1_8426)"/>
<defs>
<linearGradient id="paint0_linear_1_8426" x1="0.499533" y1="29.9998" x2="30.4996" y2="-0.000365264" gradientUnits="userSpaceOnUse">
<stop stop-color="#53389E"/>
<stop offset="1" stop-color="#7F56D9"/>
</linearGradient>
</defs>
</svg>
